<?xml version="1.0" encoding="UTF-8" standalone="no"?>
<svg width="1904px" height="727px" viewBox="0 0 1904 727" version="1.1" xmlns="http://www.w3.org/2000/svg" xmlns:xlink="http://www.w3.org/1999/xlink">
    <!-- Generator: Sketch 3.6 (26304) - http://www.bohemiancoding.com/sketch -->
    <title>4</title>
    <desc>Created with Sketch.</desc>
    <defs></defs>
    <g id="Page-1" stroke="none" stroke-width="1" fill="none" fill-rule="evenodd">
        <g id="logo" transform="translate(641.000000, 45.000000)">
            <g id="Layer_1">
                <g id="Group">
                    <path d="M310.826296,96.2914118 C336.074759,88.3903306 361.317958,80.4760882 386.569929,72.5890455 C463.32508,48.6155592 540.094268,24.6850661 616.812573,0.594006887 C620.772669,-0.649283747 621.14464,0.339557851 621.14815,3.92904408 C621.246406,109.558736 621.478011,215.188427 621.605219,320.818996 C621.681543,384.410197 621.735058,448.001398 621.48152,511.590844 C621.447306,520.192977 620.677044,528.830205 620.878821,537.45515 C620.959532,540.91127 618.33292,540.561183 616.558158,541.118339 C584.613326,551.141876 552.633402,561.049595 520.672779,571.023997 C451.774654,592.526696 382.884426,614.054839 313.986302,635.560169 C312.96952,635.877792 311.904488,636.041868 310.861388,636.277014 C310.82191,625.209358 310.782432,614.140825 310.742076,603.074047 L310.70523,602.987183 C311.226341,602.871365 311.759735,602.79503 312.26681,602.637096 C403.495523,574.15372 494.713709,545.643145 585.976638,517.269445 C589.181385,516.272707 589.686705,514.757419 589.672669,511.825113 C589.47791,474.552716 589.398953,437.279442 589.298065,400.007045 C589.279642,393.335216 589.300697,393.351887 583.082451,395.292719 C492.370463,423.606755 401.655842,451.912894 310.942099,480.22342 C310.817523,480.038287 310.760499,479.83385 310.772781,479.610988 C310.7991,479.205624 310.846474,478.80026 310.846474,478.394019 C310.842965,351.026483 310.835069,223.658948 310.826296,96.2914118 L310.826296,96.2914118 Z" id="Shape" fill="#303030"></path>
                    <path d="M310.826296,96.2914118 C310.834192,223.658948 310.842965,351.026483 310.847351,478.393142 C310.847351,478.799383 310.799977,479.204747 310.774536,479.61011 C310.242897,479.506576 309.695467,479.453054 309.181374,479.293365 C259.648592,463.832515 210.129848,448.325163 160.561097,432.977499 C157.09053,431.901793 156.186042,430.400544 156.195693,426.8172 C156.488708,313.196054 156.628197,199.573153 156.901035,85.9520069 C156.908931,82.5222094 155.932505,81.0972948 152.620728,80.0777438 C113.87776,68.1475937 75.1725162,56.0893416 36.5058731,43.9108843 C33.1809365,42.8641336 32.5396361,43.3256515 32.5475317,46.7782617 C32.6536841,100.194134 32.6957941,153.610006 32.6273653,207.025877 C32.4984034,308.309755 32.3203131,409.592755 31.9965924,510.875755 C31.9825557,515.072409 33.2870889,516.560497 37.1278731,517.752898 C128.360096,546.108172 219.547577,574.603832 310.743831,603.074047 C310.783309,614.140825 310.823664,625.209358 310.863142,636.277014 C292.387374,630.599291 273.891427,624.99176 255.441977,619.234193 C172.286982,593.288288 89.1547955,567.26868 5.96733992,541.4228 C2.10988717,540.224258 0.876414669,538.758982 0.784299013,534.578121 C-0.731661495,465.629452 0.43425952,396.677273 0.343898449,327.727726 C0.213181946,229.045371 0.40267701,130.363015 0.471983075,31.6797824 C0.478124118,22.192343 0.729906911,12.7040262 0.595681241,3.22009642 C0.548307475,-0.158811295 1.48613258,-0.484330579 4.49261213,0.458008264 C70.5746291,21.1789339 136.686474,41.8059766 202.786914,62.4681157 C238.805013,73.7261694 274.813461,85.0158099 310.826296,96.2914118 L310.826296,96.2914118 Z" id="Shape" fill="#000000"></path>
                    <path d="M32.5475317,46.7782617 C32.5405134,43.3256515 33.1818138,42.8641336 36.5058731,43.9108843 C75.1725162,56.0893416 113.876883,68.1475937 152.621605,80.075989 C155.932505,81.0955399 156.909808,82.521332 156.901913,85.9502521 C156.628197,199.571398 156.489585,313.194299 156.19657,426.815445 C156.18692,430.399667 157.091408,431.900916 160.561975,432.975744 C210.129848,448.323408 259.648592,463.83076 309.182251,479.29161 C309.696344,479.452176 310.243774,479.504821 310.775413,479.608355 C310.762254,479.831218 310.819278,480.035654 310.943853,480.220788 C310.91578,510.168562 310.899111,540.117213 310.85437,570.06411 C310.838578,581.037883 310.757867,592.011656 310.706984,602.985428 L310.743831,603.072292 C219.547577,574.602077 128.360096,546.106417 37.1278731,517.751143 C33.2870889,516.558742 31.983433,515.070654 31.9965924,510.874" id="Shape"></path>
                    <path d="M310.706984,602.987183 C310.757867,592.01341 310.838578,581.039638 310.85437,570.065865 C310.899111,540.118091 310.91578,510.169439 310.943853,480.222543 C401.657597,451.912017 492.372217,423.605877 583.084206,395.291842 C589.302451,393.35101 589.281396,393.335216 589.299819,400.006168 C589.400708,437.278565 589.479664,474.551839 589.674423,511.824236 C589.689337,514.756541 589.18314,516.271829 585.978392,517.268567 C494.716341,545.642267 403.497278,574.152843 312.268564,602.636219 C311.760612,602.79503 311.228096,602.871365 310.706984,602.987183 L310.706984,602.987183 Z" id="Shape"></path>
                </g>
            </g>
            <g id="Layer_2"></g>
        </g>
        <path d="M1667.41714,184.865714 L1667.41714,437.238571 L1476.32,437.238571 L1664.30143,184.865714 L1667.41714,184.865714 Z M1667.41714,558.751429 L1667.41714,727 L1807.62429,727 L1807.62429,558.751429 L1904.21143,558.751429 L1904.21143,437.238571 L1807.62429,437.238571 L1807.62429,0 L1675.72571,0 L1360,423.737143 L1360,558.751429 L1667.41714,558.751429 Z" id="4" fill="#303030"></path>
        <path d="M308.205714,184.865714 L308.205714,437.238571 L117.108571,437.238571 L305.09,184.865714 L308.205714,184.865714 Z M308.205714,558.751429 L308.205714,727 L448.412857,727 L448.412857,558.751429 L545,558.751429 L545,437.238571 L448.412857,437.238571 L448.412857,0 L316.514286,0 L0.788571429,423.737143 L0.788571429,558.751429 L308.205714,558.751429 Z" id="4" fill="#000000"></path>
    </g>
</svg>