<?xml version="1.0" encoding="utf-8"?>
<!DOCTYPE svg PUBLIC "-//W3C//DTD SVG 1.1//EN" "http://www.w3.org/Graphics/SVG/1.1/DTD/svg11.dtd">
<svg version="1.1" xmlns="http://www.w3.org/2000/svg" xmlns:xlink="http://www.w3.org/1999/xlink" x="0px" y="0px"
	 width="708.623px" height="725.175px" viewBox="0 0 708.623 725.175" enable-background="new 0 0 708.623 725.175"
	 xml:space="preserve">
<g id="Layer_1">
	<g>
		<path fill-rule="evenodd" clip-rule="evenodd" fill="#303030" d="M354.302,109.745c28.78-9.005,57.554-18.025,86.338-27.014
			c87.491-27.323,174.998-54.597,262.447-82.054c4.514-1.417,4.938-0.29,4.942,3.801c0.112,120.388,0.376,240.776,0.521,361.165
			c0.087,72.476,0.148,144.952-0.141,217.426c-0.039,9.804-0.917,19.648-0.687,29.478c0.092,3.939-2.902,3.54-4.925,4.175
			c-36.413,11.424-72.866,22.716-109.297,34.084c-78.535,24.507-157.061,49.043-235.596,73.553
			c-1.159,0.362-2.373,0.549-3.562,0.817c-0.045-12.614-0.09-25.229-0.136-37.842l-0.042-0.099c0.594-0.132,1.202-0.219,1.78-0.399
			c103.989-32.463,207.966-64.957,311.994-97.295c3.653-1.136,4.229-2.863,4.213-6.205c-0.222-42.48-0.312-84.961-0.427-127.441
			c-0.021-7.604,0.003-7.585-7.085-5.373c-103.4,32.27-206.803,64.531-310.205,96.797c-0.142-0.211-0.207-0.444-0.193-0.698
			c0.03-0.462,0.084-0.924,0.084-1.387C354.321,400.071,354.312,254.908,354.302,109.745z"/>
		<path fill-rule="evenodd" clip-rule="evenodd" d="M354.302,109.745c0.009,145.163,0.019,290.326,0.024,435.488
			c0,0.463-0.054,0.925-0.083,1.387c-0.606-0.118-1.23-0.179-1.816-0.361c-56.461-17.621-112.906-35.295-169.408-52.787
			c-3.956-1.226-4.987-2.937-4.976-7.021c0.334-129.496,0.493-258.994,0.804-388.49c0.009-3.909-1.104-5.533-4.879-6.695
			C129.806,77.669,85.687,63.926,41.612,50.046c-3.79-1.193-4.521-0.667-4.512,3.268c0.121,60.879,0.169,121.758,0.091,182.637
			c-0.147,115.435-0.35,230.869-0.719,346.303c-0.016,4.783,1.471,6.479,5.849,7.838c103.993,32.317,207.935,64.794,311.887,97.242
			c0.045,12.613,0.091,25.228,0.136,37.842c-21.06-6.471-42.143-12.862-63.173-19.424c-94.786-29.571-189.546-59.226-284.369-88.683
			c-4.397-1.366-5.803-3.036-5.908-7.801C-0.834,530.686,0.495,452.1,0.392,373.517c-0.149-112.47,0.067-224.94,0.146-337.411
			C0.545,25.293,0.832,14.479,0.679,3.67C0.625-0.181,1.694-0.552,5.121,0.522c75.325,23.616,150.684,47.125,226.03,70.674
			C272.207,84.027,313.252,96.894,354.302,109.745z"/>
		<path fill-rule="evenodd" clip-rule="evenodd" fill="none" d="M37.1,53.314c-0.008-3.935,0.723-4.461,4.512-3.268
			c44.075,13.88,88.193,27.623,132.357,41.218c3.774,1.162,4.888,2.787,4.879,6.695c-0.312,129.496-0.47,258.994-0.804,388.49
			c-0.011,4.085,1.02,5.796,4.976,7.021c56.501,17.492,112.946,35.166,169.408,52.787c0.586,0.183,1.21,0.243,1.816,0.361
			c-0.015,0.254,0.05,0.487,0.192,0.698c-0.032,34.132-0.051,68.265-0.102,102.396c-0.018,12.507-0.11,25.014-0.168,37.521
			l0.042,0.099c-103.952-32.448-207.894-64.925-311.887-97.242c-4.378-1.359-5.864-3.055-5.849-7.838"/>
		<path fill-rule="evenodd" clip-rule="evenodd" fill="none" d="M354.166,687.235c0.058-12.507,0.15-25.014,0.168-37.521
			c0.051-34.132,0.07-68.265,0.102-102.396c103.402-32.266,206.805-64.527,310.205-96.797c7.088-2.212,7.064-2.23,7.085,5.373
			c0.115,42.48,0.205,84.961,0.427,127.441c0.017,3.342-0.56,5.069-4.213,6.205c-104.027,32.338-208.005,64.832-311.994,97.295
			C355.367,687.016,354.76,687.103,354.166,687.235z"/>
	</g>
</g>
<g id="Layer_2">
</g>
</svg>
