<?xml version="1.0" standalone="no"?>
<!DOCTYPE svg PUBLIC "-//W3C//DTD SVG 20010904//EN"
 "http://www.w3.org/TR/2001/REC-SVG-20010904/DTD/svg10.dtd">
<svg version="1.0" xmlns="http://www.w3.org/2000/svg"
 width="500.000000pt" height="500.000000pt" viewBox="0 0 500.000000 500.000000"
 preserveAspectRatio="xMidYMid meet">
<metadata>
Created by potrace 1.11, written by Peter Selinger 2001-2013
</metadata>
<g transform="translate(0.000000,500.000000) scale(0.100000,-0.100000)"
fill="#000000" stroke="none">
<path d="M67 4993 c-10 -19 -5 -4196 5 -4217 8 -20 75 -50 133 -62 6 -1 78
-23 160 -49 83 -26 173 -54 200 -62 28 -8 64 -20 80 -26 17 -6 35 -12 40 -13
12 -2 242 -72 265 -81 8 -3 26 -8 40 -10 13 -2 29 -8 35 -12 8 -7 33 -15 75
-26 3 0 21 -6 40 -12 114 -36 240 -75 252 -77 7 -2 22 -6 33 -10 36 -14 69
-24 175 -56 206 -63 235 -72 273 -86 20 -7 37 -12 37 -9 0 2 17 -3 37 -11 20
-9 80 -28 132 -44 53 -15 157 -47 231 -70 74 -23 142 -44 150 -45 8 -2 15 -4
15 -5 0 -16 130 15 305 74 25 8 88 28 140 44 52 16 122 38 155 48 33 10 62 19
65 19 3 1 46 14 95 30 50 16 95 30 100 31 6 1 37 11 70 22 33 11 114 37 180
57 66 20 144 45 173 55 28 11 52 17 52 15 0 -3 21 4 48 14 26 10 49 19 52 19
3 0 43 11 90 26 47 14 88 26 92 26 4 1 24 8 45 16 20 9 45 17 55 19 10 2 58
16 106 32 48 15 89 28 92 28 3 1 12 4 20 8 8 3 31 10 50 16 19 5 80 23 135 41
55 17 105 33 110 34 43 10 223 70 233 78 19 16 16 4224 -4 4232 -7 3 -68 -13
-136 -35 -68 -22 -132 -41 -143 -43 -11 -3 -67 -20 -125 -39 -142 -47 -242
-78 -260 -82 -8 -2 -42 -12 -75 -23 -33 -11 -107 -34 -165 -52 -58 -17 -122
-38 -143 -46 -20 -8 -39 -14 -42 -14 -3 0 -10 -2 -17 -5 -7 -2 -67 -20 -133
-40 -66 -20 -127 -39 -135 -41 -8 -3 -17 -6 -20 -6 -3 -1 -43 -14 -90 -30 -47
-15 -87 -29 -90 -29 -3 -1 -9 -3 -15 -5 -165 -49 -255 -77 -275 -84 -37 -13
-258 -81 -273 -84 -6 -2 -19 -6 -27 -10 -8 -3 -72 -23 -141 -45 l-127 -38
-103 34 c-57 18 -112 34 -121 35 -10 1 -18 5 -18 8 0 4 -6 7 -13 7 -6 0 -41 9
-77 20 -36 12 -132 42 -215 68 -82 25 -161 50 -175 55 -39 14 -294 93 -305 96
-6 1 -83 24 -170 52 -88 28 -221 69 -295 92 -74 23 -182 57 -240 75 -58 19
-145 46 -195 61 -49 15 -99 30 -110 35 -22 8 -254 81 -270 85 -5 1 -34 9 -64
18 -64 19 -59 18 -64 9z m419 -382 c72 -23 136 -41 143 -41 6 0 19 -4 29 -10
9 -5 64 -23 122 -40 58 -17 112 -34 120 -38 8 -3 20 -7 25 -7 6 -1 17 -5 25
-8 8 -3 76 -24 150 -47 182 -55 190 -59 191 -84 1 -11 0 -629 0 -1372 l-2
-1351 30 -12 c17 -6 43 -15 59 -20 45 -16 295 -93 306 -95 12 -2 111 -34 136
-43 8 -3 20 -7 25 -8 15 -4 85 -26 305 -95 107 -34 202 -63 210 -65 8 -2 45
-13 82 -25 59 -18 73 -19 110 -9 24 7 46 13 51 15 4 1 9 3 12 4 3 1 8 3 13 4
10 3 84 26 102 33 8 3 20 7 25 8 6 2 37 11 70 21 33 10 62 18 65 19 3 0 19 6
35 12 24 10 96 31 125 38 3 0 28 8 55 17 28 9 118 38 200 63 83 26 204 64 270
85 105 33 230 71 245 75 4 1 93 29 295 93 11 3 22 6 25 7 3 1 58 18 123 39 64
21 123 39 130 40 6 2 19 6 27 9 52 21 253 78 263 74 9 -3 12 -115 14 -448 1
-244 0 -458 -3 -476 -4 -30 -9 -33 -92 -59 -48 -15 -91 -29 -97 -30 -15 -3
-438 -135 -455 -141 -8 -3 -19 -7 -25 -8 -5 -2 -47 -15 -93 -30 -46 -15 -89
-28 -95 -29 -7 -2 -19 -5 -27 -8 -8 -3 -73 -24 -145 -46 -71 -22 -197 -62
-280 -87 -82 -26 -154 -48 -160 -49 -9 -2 -167 -52 -405 -128 -52 -16 -115
-36 -140 -43 -25 -7 -75 -22 -112 -33 -67 -20 -67 -20 -130 0 -258 81 -534
166 -560 173 -9 2 -25 8 -35 13 -10 6 -22 11 -28 11 -25 3 -153 41 -195 58 -8
3 -20 7 -26 8 -14 3 -403 124 -434 135 -14 5 -72 23 -130 40 -58 17 -112 34
-120 37 -8 3 -19 7 -25 9 -5 1 -48 14 -95 29 -47 15 -89 28 -95 29 -5 1 -28 8
-50 15 -64 20 -65 20 -70 21 -3 0 -22 7 -42 14 -21 8 -72 25 -113 37 -41 12
-82 28 -91 36 -14 12 -15 185 -13 1851 1 1010 2 1843 3 1850 1 15 -7 17 167
-37z"/>
</g>
</svg>
