

	<svg shape-rendering="geometricPrecision" id="svgElem" xmlns="http://www.w3.org/2000/svg" width="920" height="534"><g id="polygons"><polygon points="632,358,558,276,558,394" style="fill: rgb(204, 204, 204); stroke-linejoin: bevel; stroke-width: 0.5px; stroke: rgb(204, 204, 204);"></polygon><polygon points="632,358,558,394,581,448" style="fill: rgb(221, 221, 221); stroke-linejoin: bevel; stroke-width: 0.5px; stroke: rgb(221, 221, 221);"></polygon><polygon points="632,358,581,448,686,389" style="fill: rgb(238, 238, 238); stroke-linejoin: bevel; stroke-width: 0.5px; stroke: rgb(238, 238, 238);"></polygon><polygon points="632,358,686,389,688,331" style="fill: rgb(204, 204, 204); stroke-linejoin: bevel; stroke-width: 0.5px; stroke: rgb(204, 204, 204);"></polygon><polygon points="632,358,688,331,703,282" style="fill: rgb(221, 221, 221); stroke-linejoin: bevel; stroke-width: 0.5px; stroke: rgb(221, 221, 221);"></polygon><polygon points="632,358,703,282,558,276" style="fill: rgb(238, 238, 238); stroke-linejoin: bevel; stroke-width: 0.5px; stroke: rgb(238, 238, 238);"></polygon><polygon points="829,27,752,14,797,116" style="fill: rgb(204, 204, 204); stroke-linejoin: bevel; stroke-width: 0.5px; stroke: rgb(204, 204, 204);"></polygon><polygon points="829,27,797,116,877,66" style="fill: rgb(221, 221, 221); stroke-linejoin: bevel; stroke-width: 0.5px; stroke: rgb(221, 221, 221);"></polygon><polygon points="829,27,877,66,919,53" style="fill: rgb(238, 238, 238); stroke-linejoin: bevel; stroke-width: 0.5px; stroke: rgb(238, 238, 238);"></polygon><polygon points="176,463,104,371,90,518" style="fill: rgb(204, 204, 204); stroke-linejoin: bevel; stroke-width: 0.5px; stroke: rgb(204, 204, 204);"></polygon><polygon points="176,463,90,518,251,526" style="fill: rgb(221, 221, 221); stroke-linejoin: bevel; stroke-width: 0.5px; stroke: rgb(221, 221, 221);"></polygon><polygon points="176,463,251,526,284,457" style="fill: rgb(238, 238, 238); stroke-linejoin: bevel; stroke-width: 0.5px; stroke: rgb(238, 238, 238);"></polygon><polygon points="176,463,284,457,243,378" style="fill: rgb(204, 204, 204); stroke-linejoin: bevel; stroke-width: 0.5px; stroke: rgb(204, 204, 204);"></polygon><polygon points="176,463,243,378,104,371" style="fill: rgb(221, 221, 221); stroke-linejoin: bevel; stroke-width: 0.5px; stroke: rgb(221, 221, 221);"></polygon><polygon points="423,66,209,41,313,98" style="fill: rgb(238, 238, 238); stroke-linejoin: bevel; stroke-width: 0.5px; stroke: rgb(238, 238, 238);"></polygon><polygon points="423,66,313,98,414,147" style="fill: rgb(204, 204, 204); stroke-linejoin: bevel; stroke-width: 0.5px; stroke: rgb(204, 204, 204);"></polygon><polygon points="423,66,414,147,477,95" style="fill: rgb(221, 221, 221); stroke-linejoin: bevel; stroke-width: 0.5px; stroke: rgb(221, 221, 221);"></polygon><polygon points="423,66,477,95,541,41" style="fill: rgb(238, 238, 238); stroke-linejoin: bevel; stroke-width: 0.5px; stroke: rgb(238, 238, 238);"></polygon><polygon points="423,66,541,41,599,13" style="fill: rgb(204, 204, 204); stroke-linejoin: bevel; stroke-width: 0.5px; stroke: rgb(204, 204, 204);"></polygon><polygon points="423,66,599,13,209,41" style="fill: rgb(221, 221, 221); stroke-linejoin: bevel; stroke-width: 0.5px; stroke: rgb(221, 221, 221);"></polygon><polygon points="322,255,276,185,300,281" style="fill: rgb(238, 238, 238); stroke-linejoin: bevel; stroke-width: 0.5px; stroke: rgb(238, 238, 238);"></polygon><polygon points="322,255,300,281,395,270" style="fill: rgb(204, 204, 204); stroke-linejoin: bevel; stroke-width: 0.5px; stroke: rgb(204, 204, 204);"></polygon><polygon points="322,255,395,270,414,147" style="fill: rgb(221, 221, 221); stroke-linejoin: bevel; stroke-width: 0.5px; stroke: rgb(221, 221, 221);"></polygon><polygon points="322,255,414,147,276,185" style="fill: rgb(238, 238, 238); stroke-linejoin: bevel; stroke-width: 0.5px; stroke: rgb(238, 238, 238);"></polygon><polygon points="209,41,47,22,84,46" style="fill: rgb(204, 204, 204); stroke-linejoin: bevel; stroke-width: 0.5px; stroke: rgb(204, 204, 204);"></polygon><polygon points="209,41,84,46,161,116" style="fill: rgb(221, 221, 221); stroke-linejoin: bevel; stroke-width: 0.5px; stroke: rgb(221, 221, 221);"></polygon><polygon points="209,41,161,116,223,140" style="fill: rgb(238, 238, 238); stroke-linejoin: bevel; stroke-width: 0.5px; stroke: rgb(238, 238, 238);"></polygon><polygon points="209,41,223,140,313,98" style="fill: rgb(204, 204, 204); stroke-linejoin: bevel; stroke-width: 0.5px; stroke: rgb(204, 204, 204);"></polygon><polygon points="209,41,599,13,47,22" style="fill: rgb(221, 221, 221); stroke-linejoin: bevel; stroke-width: 0.5px; stroke: rgb(221, 221, 221);"></polygon><polygon points="104,371,119,286,10,376" style="fill: rgb(238, 238, 238); stroke-linejoin: bevel; stroke-width: 0.5px; stroke: rgb(238, 238, 238);"></polygon><polygon points="104,371,10,376,12,473" style="fill: rgb(204, 204, 204); stroke-linejoin: bevel; stroke-width: 0.5px; stroke: rgb(204, 204, 204);"></polygon><polygon points="104,371,12,473,90,518" style="fill: rgb(221, 221, 221); stroke-linejoin: bevel; stroke-width: 0.5px; stroke: rgb(221, 221, 221);"></polygon><polygon points="104,371,243,378,119,286" style="fill: rgb(238, 238, 238); stroke-linejoin: bevel; stroke-width: 0.5px; stroke: rgb(238, 238, 238);"></polygon><polygon points="804,219,725,160,764,252" style="fill: rgb(204, 204, 204); stroke-linejoin: bevel; stroke-width: 0.5px; stroke: rgb(204, 204, 204);"></polygon><polygon points="804,219,764,252,864,280" style="fill: rgb(221, 221, 221); stroke-linejoin: bevel; stroke-width: 0.5px; stroke: rgb(221, 221, 221);"></polygon><polygon points="804,219,864,280,901,192" style="fill: rgb(238, 238, 238); stroke-linejoin: bevel; stroke-width: 0.5px; stroke: rgb(238, 238, 238);"></polygon><polygon points="804,219,901,192,867,151" style="fill: rgb(204, 204, 204); stroke-linejoin: bevel; stroke-width: 0.5px; stroke: rgb(204, 204, 204);"></polygon><polygon points="804,219,867,151,797,116" style="fill: rgb(221, 221, 221); stroke-linejoin: bevel; stroke-width: 0.5px; stroke: rgb(221, 221, 221);"></polygon><polygon points="804,219,797,116,725,160" style="fill: rgb(238, 238, 238); stroke-linejoin: bevel; stroke-width: 0.5px; stroke: rgb(238, 238, 238);"></polygon><polygon points="495,321,395,270,418,452" style="fill: rgb(204, 204, 204); stroke-linejoin: bevel; stroke-width: 0.5px; stroke: rgb(204, 204, 204);"></polygon><polygon points="495,321,418,452,482,427" style="fill: rgb(221, 221, 221); stroke-linejoin: bevel; stroke-width: 0.5px; stroke: rgb(221, 221, 221);"></polygon><polygon points="495,321,482,427,558,394" style="fill: rgb(238, 238, 238); stroke-linejoin: bevel; stroke-width: 0.5px; stroke: rgb(238, 238, 238);"></polygon><polygon points="495,321,558,394,558,276" style="fill: rgb(204, 204, 204); stroke-linejoin: bevel; stroke-width: 0.5px; stroke: rgb(204, 204, 204);"></polygon><polygon points="495,321,558,276,528,208" style="fill: rgb(221, 221, 221); stroke-linejoin: bevel; stroke-width: 0.5px; stroke: rgb(221, 221, 221);"></polygon><polygon points="495,321,528,208,395,270" style="fill: rgb(238, 238, 238); stroke-linejoin: bevel; stroke-width: 0.5px; stroke: rgb(238, 238, 238);"></polygon><polygon points="905,384,783,377,878,506" style="fill: rgb(204, 204, 204); stroke-linejoin: bevel; stroke-width: 0.5px; stroke: rgb(204, 204, 204);"></polygon><polygon points="905,384,919,53,901,192" style="fill: rgb(221, 221, 221); stroke-linejoin: bevel; stroke-width: 0.5px; stroke: rgb(221, 221, 221);"></polygon><polygon points="905,384,901,192,864,280" style="fill: rgb(238, 238, 238); stroke-linejoin: bevel; stroke-width: 0.5px; stroke: rgb(238, 238, 238);"></polygon><polygon points="905,384,864,280,783,377" style="fill: rgb(204, 204, 204); stroke-linejoin: bevel; stroke-width: 0.5px; stroke: rgb(204, 204, 204);"></polygon><polygon points="334,471,284,457,251,526" style="fill: rgb(221, 221, 221); stroke-linejoin: bevel; stroke-width: 0.5px; stroke: rgb(221, 221, 221);"></polygon><polygon points="334,471,251,526,450,522" style="fill: rgb(238, 238, 238); stroke-linejoin: bevel; stroke-width: 0.5px; stroke: rgb(238, 238, 238);"></polygon><polygon points="334,471,450,522,418,452" style="fill: rgb(204, 204, 204); stroke-linejoin: bevel; stroke-width: 0.5px; stroke: rgb(204, 204, 204);"></polygon><polygon points="334,471,418,452,306,417" style="fill: rgb(221, 221, 221); stroke-linejoin: bevel; stroke-width: 0.5px; stroke: rgb(221, 221, 221);"></polygon><polygon points="334,471,306,417,284,457" style="fill: rgb(238, 238, 238); stroke-linejoin: bevel; stroke-width: 0.5px; stroke: rgb(238, 238, 238);"></polygon><polygon points="640,492,503,490,450,522" style="fill: rgb(204, 204, 204); stroke-linejoin: bevel; stroke-width: 0.5px; stroke: rgb(204, 204, 204);"></polygon><polygon points="640,492,450,522,762,520" style="fill: rgb(221, 221, 221); stroke-linejoin: bevel; stroke-width: 0.5px; stroke: rgb(221, 221, 221);"></polygon><polygon points="640,492,762,520,726,487" style="fill: rgb(238, 238, 238); stroke-linejoin: bevel; stroke-width: 0.5px; stroke: rgb(238, 238, 238);"></polygon><polygon points="640,492,726,487,686,389" style="fill: rgb(204, 204, 204); stroke-linejoin: bevel; stroke-width: 0.5px; stroke: rgb(204, 204, 204);"></polygon><polygon points="640,492,686,389,581,448" style="fill: rgb(221, 221, 221); stroke-linejoin: bevel; stroke-width: 0.5px; stroke: rgb(221, 221, 221);"></polygon><polygon points="640,492,581,448,503,490" style="fill: rgb(238, 238, 238); stroke-linejoin: bevel; stroke-width: 0.5px; stroke: rgb(238, 238, 238);"></polygon><polygon points="503,490,418,452,450,522" style="fill: rgb(204, 204, 204); stroke-linejoin: bevel; stroke-width: 0.5px; stroke: rgb(204, 204, 204);"></polygon><polygon points="503,490,581,448,482,427" style="fill: rgb(221, 221, 221); stroke-linejoin: bevel; stroke-width: 0.5px; stroke: rgb(221, 221, 221);"></polygon><polygon points="503,490,482,427,418,452" style="fill: rgb(238, 238, 238); stroke-linejoin: bevel; stroke-width: 0.5px; stroke: rgb(238, 238, 238);"></polygon><polygon points="627,100,541,41,485,156" style="fill: rgb(204, 204, 204); stroke-linejoin: bevel; stroke-width: 0.5px; stroke: rgb(204, 204, 204);"></polygon><polygon points="627,100,485,156,528,208" style="fill: rgb(221, 221, 221); stroke-linejoin: bevel; stroke-width: 0.5px; stroke: rgb(221, 221, 221);"></polygon><polygon points="627,100,528,208,672,188" style="fill: rgb(238, 238, 238); stroke-linejoin: bevel; stroke-width: 0.5px; stroke: rgb(238, 238, 238);"></polygon><polygon points="627,100,672,188,725,160" style="fill: rgb(204, 204, 204); stroke-linejoin: bevel; stroke-width: 0.5px; stroke: rgb(204, 204, 204);"></polygon><polygon points="627,100,725,160,677,22" style="fill: rgb(221, 221, 221); stroke-linejoin: bevel; stroke-width: 0.5px; stroke: rgb(221, 221, 221);"></polygon><polygon points="627,100,677,22,599,13" style="fill: rgb(238, 238, 238); stroke-linejoin: bevel; stroke-width: 0.5px; stroke: rgb(238, 238, 238);"></polygon><polygon points="627,100,599,13,541,41" style="fill: rgb(204, 204, 204); stroke-linejoin: bevel; stroke-width: 0.5px; stroke: rgb(204, 204, 204);"></polygon><polygon points="541,41,477,95,485,156" style="fill: rgb(221, 221, 221); stroke-linejoin: bevel; stroke-width: 0.5px; stroke: rgb(221, 221, 221);"></polygon><polygon points="762,520,450,522,251,526" style="fill: rgb(238, 238, 238); stroke-linejoin: bevel; stroke-width: 0.5px; stroke: rgb(238, 238, 238);"></polygon><polygon points="762,520,878,506,783,377" style="fill: rgb(204, 204, 204); stroke-linejoin: bevel; stroke-width: 0.5px; stroke: rgb(204, 204, 204);"></polygon><polygon points="762,520,783,377,726,487" style="fill: rgb(221, 221, 221); stroke-linejoin: bevel; stroke-width: 0.5px; stroke: rgb(221, 221, 221);"></polygon><polygon points="703,282,688,331,783,377" style="fill: rgb(238, 238, 238); stroke-linejoin: bevel; stroke-width: 0.5px; stroke: rgb(238, 238, 238);"></polygon><polygon points="703,282,783,377,764,252" style="fill: rgb(204, 204, 204); stroke-linejoin: bevel; stroke-width: 0.5px; stroke: rgb(204, 204, 204);"></polygon><polygon points="703,282,764,252,672,188" style="fill: rgb(221, 221, 221); stroke-linejoin: bevel; stroke-width: 0.5px; stroke: rgb(221, 221, 221);"></polygon><polygon points="703,282,672,188,558,276" style="fill: rgb(238, 238, 238); stroke-linejoin: bevel; stroke-width: 0.5px; stroke: rgb(238, 238, 238);"></polygon><polygon points="528,208,485,156,395,270" style="fill: rgb(204, 204, 204); stroke-linejoin: bevel; stroke-width: 0.5px; stroke: rgb(204, 204, 204);"></polygon><polygon points="528,208,558,276,672,188" style="fill: rgb(221, 221, 221); stroke-linejoin: bevel; stroke-width: 0.5px; stroke: rgb(221, 221, 221);"></polygon><polygon points="222,258,196,195,119,286" style="fill: rgb(238, 238, 238); stroke-linejoin: bevel; stroke-width: 0.5px; stroke: rgb(238, 238, 238);"></polygon><polygon points="222,258,119,286,243,378" style="fill: rgb(204, 204, 204); stroke-linejoin: bevel; stroke-width: 0.5px; stroke: rgb(204, 204, 204);"></polygon><polygon points="222,258,243,378,300,281" style="fill: rgb(221, 221, 221); stroke-linejoin: bevel; stroke-width: 0.5px; stroke: rgb(221, 221, 221);"></polygon><polygon points="222,258,300,281,276,185" style="fill: rgb(238, 238, 238); stroke-linejoin: bevel; stroke-width: 0.5px; stroke: rgb(238, 238, 238);"></polygon><polygon points="222,258,276,185,196,195" style="fill: rgb(204, 204, 204); stroke-linejoin: bevel; stroke-width: 0.5px; stroke: rgb(204, 204, 204);"></polygon><polygon points="313,98,223,140,276,185" style="fill: rgb(221, 221, 221); stroke-linejoin: bevel; stroke-width: 0.5px; stroke: rgb(221, 221, 221);"></polygon><polygon points="313,98,276,185,414,147" style="fill: rgb(238, 238, 238); stroke-linejoin: bevel; stroke-width: 0.5px; stroke: rgb(238, 238, 238);"></polygon><polygon points="395,270,300,281,306,417" style="fill: rgb(204, 204, 204); stroke-linejoin: bevel; stroke-width: 0.5px; stroke: rgb(204, 204, 204);"></polygon><polygon points="395,270,306,417,418,452" style="fill: rgb(221, 221, 221); stroke-linejoin: bevel; stroke-width: 0.5px; stroke: rgb(221, 221, 221);"></polygon><polygon points="395,270,485,156,414,147" style="fill: rgb(238, 238, 238); stroke-linejoin: bevel; stroke-width: 0.5px; stroke: rgb(238, 238, 238);"></polygon><polygon points="783,377,688,331,686,389" style="fill: rgb(204, 204, 204); stroke-linejoin: bevel; stroke-width: 0.5px; stroke: rgb(204, 204, 204);"></polygon><polygon points="783,377,686,389,726,487" style="fill: rgb(221, 221, 221); stroke-linejoin: bevel; stroke-width: 0.5px; stroke: rgb(221, 221, 221);"></polygon><polygon points="783,377,864,280,764,252" style="fill: rgb(238, 238, 238); stroke-linejoin: bevel; stroke-width: 0.5px; stroke: rgb(238, 238, 238);"></polygon><polygon points="243,378,284,457,306,417" style="fill: rgb(204, 204, 204); stroke-linejoin: bevel; stroke-width: 0.5px; stroke: rgb(204, 204, 204);"></polygon><polygon points="243,378,306,417,300,281" style="fill: rgb(221, 221, 221); stroke-linejoin: bevel; stroke-width: 0.5px; stroke: rgb(221, 221, 221);"></polygon><polygon points="223,140,161,116,146,171" style="fill: rgb(238, 238, 238); stroke-linejoin: bevel; stroke-width: 0.5px; stroke: rgb(238, 238, 238);"></polygon><polygon points="223,140,146,171,196,195" style="fill: rgb(204, 204, 204); stroke-linejoin: bevel; stroke-width: 0.5px; stroke: rgb(204, 204, 204);"></polygon><polygon points="223,140,196,195,276,185" style="fill: rgb(221, 221, 221); stroke-linejoin: bevel; stroke-width: 0.5px; stroke: rgb(221, 221, 221);"></polygon><polygon points="5,252,12,473,10,376" style="fill: rgb(238, 238, 238); stroke-linejoin: bevel; stroke-width: 0.5px; stroke: rgb(238, 238, 238);"></polygon><polygon points="5,252,10,376,119,286" style="fill: rgb(204, 204, 204); stroke-linejoin: bevel; stroke-width: 0.5px; stroke: rgb(204, 204, 204);"></polygon><polygon points="5,252,119,286,146,171" style="fill: rgb(221, 221, 221); stroke-linejoin: bevel; stroke-width: 0.5px; stroke: rgb(221, 221, 221);"></polygon><polygon points="5,252,146,171,84,46" style="fill: rgb(238, 238, 238); stroke-linejoin: bevel; stroke-width: 0.5px; stroke: rgb(238, 238, 238);"></polygon><polygon points="5,252,84,46,47,22" style="fill: rgb(204, 204, 204); stroke-linejoin: bevel; stroke-width: 0.5px; stroke: rgb(204, 204, 204);"></polygon><polygon points="84,46,146,171,161,116" style="fill: rgb(221, 221, 221); stroke-linejoin: bevel; stroke-width: 0.5px; stroke: rgb(221, 221, 221);"></polygon><polygon points="558,394,482,427,581,448" style="fill: rgb(238, 238, 238); stroke-linejoin: bevel; stroke-width: 0.5px; stroke: rgb(238, 238, 238);"></polygon><polygon points="797,116,752,14,725,160" style="fill: rgb(204, 204, 204); stroke-linejoin: bevel; stroke-width: 0.5px; stroke: rgb(204, 204, 204);"></polygon><polygon points="797,116,867,151,877,66" style="fill: rgb(221, 221, 221); stroke-linejoin: bevel; stroke-width: 0.5px; stroke: rgb(221, 221, 221);"></polygon><polygon points="672,188,764,252,725,160" style="fill: rgb(238, 238, 238); stroke-linejoin: bevel; stroke-width: 0.5px; stroke: rgb(238, 238, 238);"></polygon><polygon points="901,192,919,53,867,151" style="fill: rgb(204, 204, 204); stroke-linejoin: bevel; stroke-width: 0.5px; stroke: rgb(204, 204, 204);"></polygon><polygon points="752,14,599,13,677,22" style="fill: rgb(221, 221, 221); stroke-linejoin: bevel; stroke-width: 0.5px; stroke: rgb(221, 221, 221);"></polygon><polygon points="752,14,677,22,725,160" style="fill: rgb(238, 238, 238); stroke-linejoin: bevel; stroke-width: 0.5px; stroke: rgb(238, 238, 238);"></polygon><polygon points="196,195,146,171,119,286" style="fill: rgb(204, 204, 204); stroke-linejoin: bevel; stroke-width: 0.5px; stroke: rgb(204, 204, 204);"></polygon><polygon points="477,95,414,147,485,156" style="fill: rgb(221, 221, 221); stroke-linejoin: bevel; stroke-width: 0.5px; stroke: rgb(221, 221, 221);"></polygon><polygon points="877,66,867,151,919,53" style="fill: rgb(238, 238, 238); stroke-linejoin: bevel; stroke-width: 0.5px; stroke: rgb(238, 238, 238);"></polygon></g><g id="circles"><circle cx="632.9196883458644" cy="358.3148594275117" r="0" style="fill:#fff" id="d0c"></circle><circle cx="829.5925793796778" cy="27.930965807754546" r="0" style="fill:#fff" id="d1c"></circle><circle cx="176.18199463002384" cy="463.6195420869626" r="0" style="fill:#fff" id="d2c"></circle><circle cx="423.3628861885518" cy="66.26247878093272" r="0" style="fill:#fff" id="d3c"></circle><circle cx="322.2154156025499" cy="255.53816643962637" r="0" style="fill:#fff" id="d4c"></circle><circle cx="209.87118386663496" cy="41.82522742683068" r="0" style="fill:#fff" id="d5c"></circle><circle cx="104.59216745570302" cy="371.90267756022513" r="0" style="fill:#fff" id="d6c"></circle><circle cx="804.2930055689067" cy="219.30403208127245" r="0" style="fill:#fff" id="d7c"></circle><circle cx="495.4366595391184" cy="321.5548504223116" r="0" style="fill:#fff" id="d8c"></circle><circle cx="905.7485026400536" cy="384.3151165628806" r="0" style="fill:#fff" id="d9c"></circle><circle cx="334.0151990391314" cy="471.1957751917653" r="0" style="fill:#fff" id="d10c"></circle><circle cx="640.117573607713" cy="492.93201458361" r="0" style="fill:#fff" id="d11c"></circle><circle cx="503.52378737181425" cy="490.34485005028546" r="0" style="fill:#fff" id="d12c"></circle><circle cx="627.9923278931528" cy="100.87371535180137" r="0" style="fill:#fff" id="d13c"></circle><circle cx="541.688307095319" cy="41.37764610629529" r="0" style="fill:#fff" id="d14c"></circle><circle cx="762.1167594194412" cy="520.4553245468996" r="0" style="fill:#fff" id="d15c"></circle><circle cx="703.6822021659464" cy="282.3840970317833" r="0" style="fill:#fff" id="d16c"></circle><circle cx="528.9597045071423" cy="208.81914074532688" r="0" style="fill:#fff" id="d17c"></circle><circle cx="222.03080871142447" cy="258.91867526387796" r="0" style="fill:#fff" id="d18c"></circle><circle cx="313.5144533123821" cy="98.64752911264077" r="0" style="fill:#fff" id="d19c"></circle><circle cx="395.779158398509" cy="270.20636444119737" r="0" style="fill:#fff" id="d20c"></circle><circle cx="783.0778207443655" cy="377.09590141894296" r="0" style="fill:#fff" id="d21c"></circle><circle cx="418.86581354774535" cy="452.530579383485" r="0" style="fill:#fff" id="d22c"></circle><circle cx="251.20765726082027" cy="526.661957948003" r="0" style="fill:#fff" id="d23c"></circle><circle cx="243.64240067079663" cy="378.3904037391767" r="0" style="fill:#fff" id="d24c"></circle><circle cx="223.15839221701026" cy="140.39532582554966" r="0" style="fill:#fff" id="d25c"></circle><circle cx="5.169159499928355" cy="252.43522584205493" r="0" style="fill:#fff" id="d26c"></circle><circle cx="84.19537395238876" cy="46.15393649926409" r="0" style="fill:#fff" id="d27c"></circle><circle cx="558.0042661167681" cy="394.04916162835434" r="0" style="fill:#fff" id="d28c"></circle><circle cx="797.7062568627298" cy="116.76737311296165" r="0" style="fill:#fff" id="d29c"></circle><circle cx="672.7382894139737" cy="188.54295475641266" r="0" style="fill:#fff" id="d30c"></circle><circle cx="726.5126601047814" cy="487.293845357839" r="0" style="fill:#fff" id="d31c"></circle><circle cx="901.1929957382381" cy="192.45840659877285" r="0" style="fill:#fff" id="d32c"></circle><circle cx="752.9980670381337" cy="14.168466552626342" r="0" style="fill:#fff" id="d33c"></circle><circle cx="581.0748184658587" cy="448.68765772646293" r="0" style="fill:#fff" id="d34c"></circle><circle cx="482.84980271942914" cy="427.937784767244" r="0" style="fill:#fff" id="d35c"></circle><circle cx="864.6753455325961" cy="280.11425611563027" r="0" style="fill:#fff" id="d36c"></circle><circle cx="196.01134944707155" cy="195.65122076449916" r="0" style="fill:#fff" id="d37c"></circle><circle cx="477.4591616541147" cy="95.25611976720393" r="0" style="fill:#fff" id="d38c"></circle><circle cx="146.15514528937638" cy="171.9262282610871" r="0" style="fill:#fff" id="d39c"></circle><circle cx="10.960058877244592" cy="376.93247404368594" r="0" style="fill:#fff" id="d40c"></circle><circle cx="688.9408870786428" cy="331.7878162949346" r="0" style="fill:#fff" id="d41c"></circle><circle cx="878.3088357374072" cy="506.095177390147" r="0" style="fill:#fff" id="d42c"></circle><circle cx="90.25977652519941" cy="518.2184441769496" r="0" style="fill:#fff" id="d43c"></circle><circle cx="677.5766598060727" cy="22.05406505987048" r="0" style="fill:#fff" id="d44c"></circle><circle cx="12.792643643915653" cy="473.5284805088304" r="0" style="fill:#fff" id="d45c"></circle><circle cx="599.004149325192" cy="13.605389788281173" r="0" style="fill:#fff" id="d46c"></circle><circle cx="725.5135282129049" cy="160.21643727924675" r="0" style="fill:#fff" id="d47c"></circle><circle cx="877.8618552070111" cy="66.20661897165701" r="0" style="fill:#fff" id="d48c"></circle><circle cx="919.2295876331627" cy="53.27979268832132" r="0" style="fill:#fff" id="d49c"></circle><circle cx="485.9966636542231" cy="156.45148891909048" r="0" style="fill:#fff" id="d50c"></circle><circle cx="300.9833754785359" cy="281.57894658856094" r="0" style="fill:#fff" id="d51c"></circle><circle cx="867.3455888591707" cy="151.3297052308917" r="0" style="fill:#fff" id="d52c"></circle><circle cx="306.304372549057" cy="417.39451739983633" r="0" style="fill:#fff" id="d53c"></circle><circle cx="284.5119530521333" cy="457.79869448393583" r="0" style="fill:#fff" id="d54c"></circle><circle cx="558.6670460179448" cy="276.72984800487757" r="0" style="fill:#fff" id="d55c"></circle><circle cx="276.06093706563115" cy="185.8092315327376" r="0" style="fill:#fff" id="d56c"></circle><circle cx="764.7397274523973" cy="252.2742869630456" r="0" style="fill:#fff" id="d57c"></circle><circle cx="47.70991863682866" cy="22.961653273086995" r="0" style="fill:#fff" id="d58c"></circle><circle cx="161.77360512316227" cy="116.0407037367113" r="0" style="fill:#fff" id="d59c"></circle><circle cx="119.36646527610719" cy="286.78784418152645" r="0" style="fill:#fff" id="d60c"></circle><circle cx="450.3008296806365" cy="522.5100019834936" r="0" style="fill:#fff" id="d61c"></circle><circle cx="414.8994607105851" cy="147.62587379151955" r="0" style="fill:#fff" id="d62c"></circle><circle cx="686.3409489952028" cy="389.85230742255226" r="0" style="fill:#fff" id="d63c"></circle></g><defs></defs></svg>