<?xml version="1.0" encoding="UTF-8" standalone="no"?>
<svg width="711px" height="460px" viewBox="0 0 711 460" version="1.1" xmlns="http://www.w3.org/2000/svg" xmlns:xlink="http://www.w3.org/1999/xlink" xmlns:sketch="http://www.bohemiancoding.com/sketch/ns">
    <!-- Generator: Sketch 3.2.2 (9983) - http://www.bohemiancoding.com/sketch -->
    <title>Pattern</title>
    <desc>Created with Sketch.</desc>
    <defs></defs>
    <g id="Page-1" stroke="none" stroke-width="1" fill="none" fill-rule="evenodd" sketch:type="MSPage">
        <g id="kubist" sketch:type="MSLayerGroup" transform="translate(-83.000000, -35.000000)">
            <g id="polygons" stroke-width="0.5" sketch:type="MSShapeGroup">
                <path d="M625.817391,345 L552.541304,263 L552.541304,381 L625.817391,345 Z" id="Shape" stroke="#CCCCCC" fill="#CCCCCC"></path>
                <path d="M625.817391,345 L552.541304,381 L575.316304,435 L625.817391,345 Z" id="Shape" stroke="#DDDDDD" fill="#DDDDDD"></path>
                <path d="M625.817391,345 L575.316304,435 L679.28913,376 L625.817391,345 Z" id="Shape" stroke="#EEEEEE" fill="#EEEEEE"></path>
                <path d="M625.817391,345 L679.28913,376 L681.269565,318 L625.817391,345 Z" id="Shape" stroke="#CCCCCC" fill="#CCCCCC"></path>
                <path d="M625.817391,345 L681.269565,318 L696.122826,269 L625.817391,345 Z" id="Shape" stroke="#DDDDDD" fill="#DDDDDD"></path>
                <path d="M625.817391,345 L696.122826,269 L552.541304,263 L625.817391,345 Z" id="Shape" stroke="#EEEEEE" fill="#EEEEEE"></path>
                <path d="M820.890217,14 L744.643478,1 L789.203261,103 L820.890217,14 Z" id="Shape" stroke="#CCCCCC" fill="#CCCCCC"></path>
                <path d="M820.890217,14 L789.203261,103 L868.420652,53 L820.890217,14 Z" id="Shape" stroke="#DDDDDD" fill="#DDDDDD"></path>
                <path d="M174.278261,450 L102.982609,358 L89.1195652,505 L174.278261,450 Z" id="Shape" stroke="#CCCCCC" fill="#CCCCCC"></path>
                <path d="M174.278261,450 L89.1195652,505 L248.544565,513 L174.278261,450 Z" id="Shape" stroke="#DDDDDD" fill="#DDDDDD"></path>
                <path d="M174.278261,450 L248.544565,513 L281.221739,444 L174.278261,450 Z" id="Shape" stroke="#EEEEEE" fill="#EEEEEE"></path>
                <path d="M174.278261,450 L281.221739,444 L240.622826,365 L174.278261,450 Z" id="Shape" stroke="#CCCCCC" fill="#CCCCCC"></path>
                <path d="M174.278261,450 L240.622826,365 L102.982609,358 L174.278261,450 Z" id="Shape" stroke="#DDDDDD" fill="#DDDDDD"></path>
                <path d="M418.861957,53 L206.955435,28 L309.938043,85 L418.861957,53 Z" id="Shape" stroke="#EEEEEE" fill="#EEEEEE"></path>
                <path d="M418.861957,53 L309.938043,85 L409.95,134 L418.861957,53 Z" id="Shape" stroke="#CCCCCC" fill="#CCCCCC"></path>
                <path d="M418.861957,53 L409.95,134 L472.333696,82 L418.861957,53 Z" id="Shape" stroke="#DDDDDD" fill="#DDDDDD"></path>
                <path d="M418.861957,53 L472.333696,82 L535.707609,28 L418.861957,53 Z" id="Shape" stroke="#EEEEEE" fill="#EEEEEE"></path>
                <path d="M418.861957,53 L535.707609,28 L593.140217,0 L418.861957,53 Z" id="Shape" stroke="#CCCCCC" fill="#CCCCCC"></path>
                <path d="M418.861957,53 L593.140217,0 L206.955435,28 L418.861957,53 Z" id="Shape" stroke="#DDDDDD" fill="#DDDDDD"></path>
                <path d="M318.85,242 L273.3,172 L297.065217,268 L318.85,242 Z" id="Shape" stroke="#EEEEEE" fill="#EEEEEE"></path>
                <path d="M318.85,242 L297.065217,268 L391.13587,257 L318.85,242 Z" id="Shape" stroke="#CCCCCC" fill="#CCCCCC"></path>
                <path d="M318.85,242 L391.13587,257 L409.95,134 L318.85,242 Z" id="Shape" stroke="#DDDDDD" fill="#DDDDDD"></path>
                <path d="M318.85,242 L409.95,134 L273.3,172 L318.85,242 Z" id="Shape" stroke="#EEEEEE" fill="#EEEEEE"></path>
                <path d="M206.955435,28 L83.1782609,33 L159.425,103 L206.955435,28 Z" id="Shape" stroke="#DDDDDD" fill="#DDDDDD"></path>
                <path d="M206.955435,28 L159.425,103 L220.818478,127 L206.955435,28 Z" id="Shape" stroke="#EEEEEE" fill="#EEEEEE"></path>
                <path d="M206.955435,28 L220.818478,127 L309.938043,85 L206.955435,28 Z" id="Shape" stroke="#CCCCCC" fill="#CCCCCC"></path>
                <path d="M102.982609,358 L117.83587,273 L9.90217391,363 L102.982609,358 Z" id="Shape" stroke="#EEEEEE" fill="#EEEEEE"></path>
                <path d="M102.982609,358 L9.90217391,363 L11.8826087,460 L102.982609,358 Z" id="Shape" stroke="#CCCCCC" fill="#CCCCCC"></path>
                <path d="M102.982609,358 L11.8826087,460 L89.1195652,505 L102.982609,358 Z" id="Shape" stroke="#DDDDDD" fill="#DDDDDD"></path>
                <path d="M102.982609,358 L240.622826,365 L117.83587,273 L102.982609,358 Z" id="Shape" stroke="#EEEEEE" fill="#EEEEEE"></path>
                <path d="M796.134783,206 L717.907609,147 L756.526087,239 L796.134783,206 Z" id="Shape" stroke="#CCCCCC" fill="#CCCCCC"></path>
                <path d="M796.134783,206 L756.526087,239 L855.547826,267 L796.134783,206 Z" id="Shape" stroke="#DDDDDD" fill="#DDDDDD"></path>
                <path d="M796.134783,206 L858.518478,138 L789.203261,103 L796.134783,206 Z" id="Shape" stroke="#DDDDDD" fill="#DDDDDD"></path>
                <path d="M796.134783,206 L789.203261,103 L717.907609,147 L796.134783,206 Z" id="Shape" stroke="#EEEEEE" fill="#EEEEEE"></path>
                <path d="M490.157609,308 L391.13587,257 L413.91087,439 L490.157609,308 Z" id="Shape" stroke="#CCCCCC" fill="#CCCCCC"></path>
                <path d="M490.157609,308 L413.91087,439 L477.284783,414 L490.157609,308 Z" id="Shape" stroke="#DDDDDD" fill="#DDDDDD"></path>
                <path d="M490.157609,308 L477.284783,414 L552.541304,381 L490.157609,308 Z" id="Shape" stroke="#EEEEEE" fill="#EEEEEE"></path>
                <path d="M490.157609,308 L552.541304,381 L552.541304,263 L490.157609,308 Z" id="Shape" stroke="#CCCCCC" fill="#CCCCCC"></path>
                <path d="M490.157609,308 L552.541304,263 L522.834783,195 L490.157609,308 Z" id="Shape" stroke="#DDDDDD" fill="#DDDDDD"></path>
                <path d="M490.157609,308 L522.834783,195 L391.13587,257 L490.157609,308 Z" id="Shape" stroke="#EEEEEE" fill="#EEEEEE"></path>
                <path d="M896.146739,371 L775.340217,364 L869.41087,493 L896.146739,371 Z" id="Shape" stroke="#CCCCCC" fill="#CCCCCC"></path>
                <path d="M896.146739,371 L855.547826,267 L775.340217,364 L896.146739,371 Z" id="Shape" stroke="#CCCCCC" fill="#CCCCCC"></path>
                <path d="M330.732609,458 L281.221739,444 L248.544565,513 L330.732609,458 Z" id="Shape" stroke="#DDDDDD" fill="#DDDDDD"></path>
                <path d="M330.732609,458 L248.544565,513 L445.597826,509 L330.732609,458 Z" id="Shape" stroke="#EEEEEE" fill="#EEEEEE"></path>
                <path d="M330.732609,458 L445.597826,509 L413.91087,439 L330.732609,458 Z" id="Shape" stroke="#CCCCCC" fill="#CCCCCC"></path>
                <path d="M330.732609,458 L413.91087,439 L303.006522,404 L330.732609,458 Z" id="Shape" stroke="#DDDDDD" fill="#DDDDDD"></path>
                <path d="M330.732609,458 L303.006522,404 L281.221739,444 L330.732609,458 Z" id="Shape" stroke="#EEEEEE" fill="#EEEEEE"></path>
                <path d="M633.73913,479 L498.079348,477 L445.597826,509 L633.73913,479 Z" id="Shape" stroke="#CCCCCC" fill="#CCCCCC"></path>
                <path d="M633.73913,479 L445.597826,509 L754.545652,507 L633.73913,479 Z" id="Shape" stroke="#DDDDDD" fill="#DDDDDD"></path>
                <path d="M633.73913,479 L754.545652,507 L718.897826,474 L633.73913,479 Z" id="Shape" stroke="#EEEEEE" fill="#EEEEEE"></path>
                <path d="M633.73913,479 L718.897826,474 L679.28913,376 L633.73913,479 Z" id="Shape" stroke="#CCCCCC" fill="#CCCCCC"></path>
                <path d="M633.73913,479 L679.28913,376 L575.316304,435 L633.73913,479 Z" id="Shape" stroke="#DDDDDD" fill="#DDDDDD"></path>
                <path d="M633.73913,479 L575.316304,435 L498.079348,477 L633.73913,479 Z" id="Shape" stroke="#EEEEEE" fill="#EEEEEE"></path>
                <path d="M498.079348,477 L413.91087,439 L445.597826,509 L498.079348,477 Z" id="Shape" stroke="#CCCCCC" fill="#CCCCCC"></path>
                <path d="M498.079348,477 L575.316304,435 L477.284783,414 L498.079348,477 Z" id="Shape" stroke="#DDDDDD" fill="#DDDDDD"></path>
                <path d="M498.079348,477 L477.284783,414 L413.91087,439 L498.079348,477 Z" id="Shape" stroke="#EEEEEE" fill="#EEEEEE"></path>
                <path d="M620.866304,87 L535.707609,28 L480.255435,143 L620.866304,87 Z" id="Shape" stroke="#CCCCCC" fill="#CCCCCC"></path>
                <path d="M620.866304,87 L480.255435,143 L522.834783,195 L620.866304,87 Z" id="Shape" stroke="#DDDDDD" fill="#DDDDDD"></path>
                <path d="M620.866304,87 L522.834783,195 L665.426087,175 L620.866304,87 Z" id="Shape" stroke="#EEEEEE" fill="#EEEEEE"></path>
                <path d="M620.866304,87 L665.426087,175 L717.907609,147 L620.866304,87 Z" id="Shape" stroke="#CCCCCC" fill="#CCCCCC"></path>
                <path d="M620.866304,87 L717.907609,147 L670.377174,9 L620.866304,87 Z" id="Shape" stroke="#DDDDDD" fill="#DDDDDD"></path>
                <path d="M620.866304,87 L670.377174,9 L593.140217,0 L620.866304,87 Z" id="Shape" stroke="#EEEEEE" fill="#EEEEEE"></path>
                <path d="M620.866304,87 L593.140217,0 L535.707609,28 L620.866304,87 Z" id="Shape" stroke="#CCCCCC" fill="#CCCCCC"></path>
                <path d="M535.707609,28 L472.333696,82 L480.255435,143 L535.707609,28 Z" id="Shape" stroke="#DDDDDD" fill="#DDDDDD"></path>
                <path d="M754.545652,507 L869.41087,493 L775.340217,364 L754.545652,507 Z" id="Shape" stroke="#CCCCCC" fill="#CCCCCC"></path>
                <path d="M754.545652,507 L775.340217,364 L718.897826,474 L754.545652,507 Z" id="Shape" stroke="#DDDDDD" fill="#DDDDDD"></path>
                <path d="M696.122826,269 L681.269565,318 L775.340217,364 L696.122826,269 Z" id="Shape" stroke="#EEEEEE" fill="#EEEEEE"></path>
                <path d="M696.122826,269 L775.340217,364 L756.526087,239 L696.122826,269 Z" id="Shape" stroke="#CCCCCC" fill="#CCCCCC"></path>
                <path d="M696.122826,269 L756.526087,239 L665.426087,175 L696.122826,269 Z" id="Shape" stroke="#DDDDDD" fill="#DDDDDD"></path>
                <path d="M696.122826,269 L665.426087,175 L552.541304,263 L696.122826,269 Z" id="Shape" stroke="#EEEEEE" fill="#EEEEEE"></path>
                <path d="M522.834783,195 L480.255435,143 L391.13587,257 L522.834783,195 Z" id="Shape" stroke="#CCCCCC" fill="#CCCCCC"></path>
                <path d="M522.834783,195 L552.541304,263 L665.426087,175 L522.834783,195 Z" id="Shape" stroke="#DDDDDD" fill="#DDDDDD"></path>
                <path d="M219.828261,245 L194.082609,182 L117.83587,273 L219.828261,245 Z" id="Shape" stroke="#EEEEEE" fill="#EEEEEE"></path>
                <path d="M219.828261,245 L117.83587,273 L240.622826,365 L219.828261,245 Z" id="Shape" stroke="#CCCCCC" fill="#CCCCCC"></path>
                <path d="M219.828261,245 L240.622826,365 L297.065217,268 L219.828261,245 Z" id="Shape" stroke="#DDDDDD" fill="#DDDDDD"></path>
                <path d="M219.828261,245 L297.065217,268 L273.3,172 L219.828261,245 Z" id="Shape" stroke="#EEEEEE" fill="#EEEEEE"></path>
                <path d="M219.828261,245 L273.3,172 L194.082609,182 L219.828261,245 Z" id="Shape" stroke="#CCCCCC" fill="#CCCCCC"></path>
                <path d="M309.938043,85 L220.818478,127 L273.3,172 L309.938043,85 Z" id="Shape" stroke="#DDDDDD" fill="#DDDDDD"></path>
                <path d="M309.938043,85 L273.3,172 L409.95,134 L309.938043,85 Z" id="Shape" stroke="#EEEEEE" fill="#EEEEEE"></path>
                <path d="M391.13587,257 L297.065217,268 L303.006522,404 L391.13587,257 Z" id="Shape" stroke="#CCCCCC" fill="#CCCCCC"></path>
                <path d="M391.13587,257 L303.006522,404 L413.91087,439 L391.13587,257 Z" id="Shape" stroke="#DDDDDD" fill="#DDDDDD"></path>
                <path d="M391.13587,257 L480.255435,143 L409.95,134 L391.13587,257 Z" id="Shape" stroke="#EEEEEE" fill="#EEEEEE"></path>
                <path d="M775.340217,364 L681.269565,318 L679.28913,376 L775.340217,364 Z" id="Shape" stroke="#CCCCCC" fill="#CCCCCC"></path>
                <path d="M775.340217,364 L679.28913,376 L718.897826,474 L775.340217,364 Z" id="Shape" stroke="#DDDDDD" fill="#DDDDDD"></path>
                <path d="M775.340217,364 L855.547826,267 L756.526087,239 L775.340217,364 Z" id="Shape" stroke="#EEEEEE" fill="#EEEEEE"></path>
                <path d="M240.622826,365 L281.221739,444 L303.006522,404 L240.622826,365 Z" id="Shape" stroke="#CCCCCC" fill="#CCCCCC"></path>
                <path d="M240.622826,365 L303.006522,404 L297.065217,268 L240.622826,365 Z" id="Shape" stroke="#DDDDDD" fill="#DDDDDD"></path>
                <path d="M220.818478,127 L159.425,103 L144.571739,158 L220.818478,127 Z" id="Shape" stroke="#EEEEEE" fill="#EEEEEE"></path>
                <path d="M220.818478,127 L144.571739,158 L194.082609,182 L220.818478,127 Z" id="Shape" stroke="#CCCCCC" fill="#CCCCCC"></path>
                <path d="M220.818478,127 L194.082609,182 L273.3,172 L220.818478,127 Z" id="Shape" stroke="#DDDDDD" fill="#DDDDDD"></path>
                <path d="M4.95108696,239 L9.90217391,363 L117.83587,273 L4.95108696,239 Z" id="Shape" stroke="#CCCCCC" fill="#CCCCCC"></path>
                <path d="M4.95108696,239 L117.83587,273 L144.571739,158 L4.95108696,239 Z" id="Shape" stroke="#DDDDDD" fill="#DDDDDD"></path>
                <path d="M4.95108696,239 L144.571739,158 L83.1782609,33 L4.95108696,239 Z" id="Shape" stroke="#EEEEEE" fill="#EEEEEE"></path>
                <path d="M4.95108696,239 L83.1782609,33 L46.5402174,9 L4.95108696,239 Z" id="Shape" stroke="#CCCCCC" fill="#CCCCCC"></path>
                <path d="M83.1782609,33 L144.571739,158 L159.425,103 L83.1782609,33 Z" id="Shape" stroke="#DDDDDD" fill="#DDDDDD"></path>
                <path d="M552.541304,381 L477.284783,414 L575.316304,435 L552.541304,381 Z" id="Shape" stroke="#EEEEEE" fill="#EEEEEE"></path>
                <path d="M789.203261,103 L744.643478,1 L717.907609,147 L789.203261,103 Z" id="Shape" stroke="#CCCCCC" fill="#CCCCCC"></path>
                <path d="M789.203261,103 L858.518478,138 L868.420652,53 L789.203261,103 Z" id="Shape" stroke="#DDDDDD" fill="#DDDDDD"></path>
                <path d="M665.426087,175 L756.526087,239 L717.907609,147 L665.426087,175 Z" id="Shape" stroke="#EEEEEE" fill="#EEEEEE"></path>
                <path d="M744.643478,1 L670.377174,9 L717.907609,147 L744.643478,1 Z" id="Shape" stroke="#EEEEEE" fill="#EEEEEE"></path>
                <path d="M194.082609,182 L144.571739,158 L117.83587,273 L194.082609,182 Z" id="Shape" stroke="#CCCCCC" fill="#CCCCCC"></path>
                <path d="M472.333696,82 L409.95,134 L480.255435,143 L472.333696,82 Z" id="Shape" stroke="#DDDDDD" fill="#DDDDDD"></path>
            </g>
            <g id="circles" transform="translate(5.000000, 0.000000)" fill="#FFFFFF" sketch:type="MSShapeGroup">
                <path id="d0c"></path>
                <path id="d2c"></path>
                <path id="d3c"></path>
                <path id="d4c"></path>
                <path id="d6c"></path>
                <path id="d8c"></path>
                <path id="d10c"></path>
                <path id="d11c"></path>
                <path id="d12c"></path>
                <path id="d13c"></path>
                <path id="d16c"></path>
                <path id="d17c"></path>
                <path id="d18c"></path>
                <path id="d19c"></path>
                <path id="d20c"></path>
                <path id="d21c"></path>
                <path id="d22c"></path>
                <path id="d24c"></path>
                <path id="d25c"></path>
                <path id="d28c"></path>
                <path id="d29c"></path>
                <path id="d30c"></path>
                <path id="d31c"></path>
                <path id="d34c"></path>
                <path id="d35c"></path>
                <path id="d37c"></path>
                <path id="d38c"></path>
                <path id="d39c"></path>
                <path id="d41c"></path>
                <path id="d47c"></path>
                <path id="d50c"></path>
                <path id="d51c"></path>
                <path id="d53c"></path>
                <path id="d54c"></path>
                <path id="d55c"></path>
                <path id="d56c"></path>
                <path id="d57c"></path>
                <path id="d59c"></path>
                <path id="d60c"></path>
                <path id="d62c"></path>
                <path id="d63c"></path>
            </g>
        </g>
    </g>
</svg>