<?xml version="1.0" encoding="UTF-8" standalone="no"?>
<svg width="220px" height="220px" viewBox="0 0 220 220" version="1.1" xmlns="http://www.w3.org/2000/svg" xmlns:xlink="http://www.w3.org/1999/xlink" xmlns:sketch="http://www.bohemiancoding.com/sketch/ns">
    <defs></defs>
    <g id="Page-1" stroke="none" stroke-width="1" fill="none" fill-rule="evenodd" sketch:type="MSPage">
        <g id="Artboard-1" sketch:type="MSArtboardGroup" transform="translate(-30.000000, -366.000000)">
            <g id="Twitter" sketch:type="MSLayerGroup" transform="translate(29.200195, 366.000000)">
                <rect id="BG" fill="#55ACEE" sketch:type="MSShapeGroup" x="0.950195312" y="0.700195312" width="219.599609" height="219.599609"></rect>
                <path d="M184.812692,65.2015385 C179.380385,67.6153846 173.546538,69.2446154 167.412692,69.9692308 C173.666538,66.2215385 178.471154,60.2861538 180.737308,53.2153846 C174.880385,56.6815385 168.400385,59.2107692 161.500385,60.5630769 C155.971154,54.6784615 148.097308,51 139.378846,51 C122.648077,51 109.092692,64.56 109.092692,81.2907692 C109.092692,83.6630769 109.355769,85.98 109.872692,88.1953846 C84.6957692,86.9307692 62.3757692,74.8707692 47.4311538,56.5430769 C44.8280769,61.02 43.3326923,66.2215385 43.3326923,71.7738462 C43.3326923,82.2876923 48.6819231,91.5553846 56.805,96.9923077 C51.8434615,96.8307692 47.1726923,95.4738462 43.0880769,93.2030769 C43.0834615,93.3276923 43.0834615,93.4615385 43.0834615,93.5815385 C43.0834615,108.263077 53.5234615,120.507692 67.3834615,123.290769 C64.845,123.978462 62.1680769,124.352308 59.4034615,124.352308 C57.4465385,124.352308 55.5542308,124.163077 53.7080769,123.812308 C57.5573077,135.84 68.7496154,144.6 82.0003846,144.849231 C71.6388462,152.972308 58.5773077,157.823077 44.385,157.823077 C41.9388462,157.823077 39.525,157.68 37.1573077,157.398462 C50.5603846,165.983077 66.4834615,171 83.5926923,171 C139.309615,171 169.785,124.841538 169.785,84.8076923 C169.785,83.4969231 169.748077,82.1861538 169.692692,80.8846154 C175.614231,76.6153846 180.746538,71.2846154 184.812692,65.2015385 L184.812692,65.2015385 Z" id="Logo" fill="#FFFFFF" sketch:type="MSShapeGroup"></path>
            </g>
        </g>
    </g>
</svg>