<?xml version="1.0" encoding="UTF-8" standalone="no"?>
<svg width="220px" height="220px" viewBox="0 0 220 220" version="1.1" xmlns="http://www.w3.org/2000/svg" xmlns:xlink="http://www.w3.org/1999/xlink" xmlns:sketch="http://www.bohemiancoding.com/sketch/ns">
    <defs></defs>
    <g id="Page-1" stroke="none" stroke-width="1" fill="none" fill-rule="evenodd" sketch:type="MSPage">
        <g id="Artboard-1" sketch:type="MSArtboardGroup" transform="translate(-30.000000, -106.000000)">
            <g id="Reddit" sketch:type="MSLayerGroup" transform="translate(29.184383, 105.316718)">
                <rect id="BG" fill="#FF4500" sketch:type="MSShapeGroup" x="0.966007314" y="0.883477394" width="219.599609" height="219.599609"></rect>
                <path d="M88.0814604,135.215829 C80.7950752,135.215829 74.8653601,129.291195 74.8653601,122.00481 C74.8653601,114.723506 80.7950752,108.798872 88.0814604,108.798872 C95.3627643,108.798872 101.287398,114.723506 101.287398,122.00481 C101.292479,129.291195 95.3678455,135.215829 88.0814604,135.215829 L88.0814604,135.215829 Z M183.678427,126.008765 C183.876592,127.51787 183.978215,129.00665 183.978215,130.454781 C183.978215,157.923538 151.113265,180.270485 110.723115,180.270485 C70.3329644,180.270485 37.4680139,157.923538 37.4680139,130.454781 C37.4680139,128.955839 37.5797994,127.401003 37.7982894,125.820762 C32.615505,121.999729 29.5617271,116.014121 29.5617271,109.571209 C29.5617271,98.4028164 38.6468433,89.3177002 49.8152355,89.3177002 C54.1748718,89.3177002 58.4074791,90.7353442 61.8931557,93.3318175 C74.4487049,85.6948323 90.4645249,81.2437351 107.293331,80.7152943 L120.19948,44.0445541 L151.123427,51.4376436 C154.040014,45.9195026 159.730914,42.4389072 166.05696,42.4389072 C175.38089,42.4389072 182.961983,50.0250808 182.961983,59.3439304 C182.961983,68.6678612 175.375809,76.2489537 166.05696,76.2489537 C157.291957,76.2489537 150.046221,69.5214963 149.228154,60.9597397 L126.444227,55.5127349 L117.526789,80.8575668 C133.161522,81.8433121 147.993432,86.2588412 159.705508,93.4181973 C163.211509,90.76075 167.489847,89.312619 171.905376,89.312619 C183.073769,89.312619 192.158885,98.3977352 192.158885,109.566127 C192.158885,116.146231 189.013646,122.197894 183.678427,126.008765 L183.678427,126.008765 Z M39.2667449,109.571209 C39.2667449,111.598592 39.866322,113.570082 40.9536905,115.257028 C43.6213001,109.601696 47.8030957,104.266476 53.234857,99.5867269 C52.1424074,99.210721 50.9940649,99.0176369 49.8152355,99.0176369 C43.997306,99.0176369 39.2667449,103.753279 39.2667449,109.571209 L39.2667449,109.571209 Z M174.273197,130.454781 C174.273197,108.336486 145.762802,90.3390136 110.723115,90.3390136 C75.6834271,90.3390136 47.1730317,108.336486 47.1730317,130.454781 C47.1730317,152.573076 75.6834271,170.565467 110.723115,170.565467 C145.767883,170.565467 174.273197,152.573076 174.273197,130.454781 L174.273197,130.454781 Z M168.292671,99.6578632 C173.76,104.388424 177.951958,109.779536 180.604324,115.500924 C181.798397,113.763167 182.453867,111.705296 182.453867,109.571209 C182.453867,103.753279 177.723306,99.0176369 171.905376,99.0176369 C170.660492,99.0176369 169.441013,99.2361268 168.292671,99.6578632 L168.292671,99.6578632 Z M158.851873,59.3439304 C158.851873,63.3123173 162.083492,66.5439358 166.051879,66.5439358 C170.025347,66.5439358 173.251884,63.3123173 173.251884,59.3439304 C173.251884,55.3704624 170.020265,52.143925 166.051879,52.143925 C162.083492,52.1388439 158.851873,55.3704624 158.851873,59.3439304 L158.851873,59.3439304 Z M135.112688,145.550911 C133.796667,145.550911 132.567026,146.069189 131.682904,146.968555 C131.418684,147.222613 125.077395,153.20314 110.596086,153.20314 C96.2926168,153.20314 90.5254989,147.227694 90.5102554,147.207369 C89.5905652,146.150488 88.2542198,145.540749 86.8518193,145.540749 C85.6983958,145.540749 84.5805403,145.952323 83.7014994,146.704334 C82.7157542,147.547807 82.1161771,148.721555 82.0145539,150.017252 C81.9129307,151.312948 82.3245047,152.567994 83.1679775,153.548659 C83.3915486,153.812879 85.5103928,156.206106 89.9868958,158.492628 C95.7286079,161.424458 102.664393,162.908157 110.601167,162.908157 C118.487129,162.908157 125.504212,161.449864 131.469496,158.568846 C136.088271,156.338216 138.390037,154.011044 138.639014,153.746824 C140.463151,151.836307 140.407258,148.777448 138.506904,146.922824 C137.587214,146.038702 136.38806,145.550911 135.112688,145.550911 L135.112688,145.550911 Z M134.960253,108.798872 C127.673868,108.798872 121.744153,114.723506 121.744153,122.00481 C121.744153,129.291195 127.673868,135.215829 134.960253,135.215829 C142.241557,135.215829 148.166191,129.291195 148.166191,122.00481 C148.171272,114.723506 142.246638,108.798872 134.960253,108.798872 L134.960253,108.798872 Z" id="Logo" fill="#FFFFFF" sketch:type="MSShapeGroup"></path>
            </g>
        </g>
    </g>
</svg>